<svg width="80" height="60" viewBox="0 0 80 60" fill="none" xmlns="http://www.w3.org/2000/svg">
<path d="M78.0569 21.1432L74.2468 19.0704L39.9561 0.22613H39.537C39.3034 0.128437 39.061 0.0527263 38.8131 0H38.0891H37.4033C37.143 0.052761 36.888 0.128439 36.6413 0.22613H36.2222L1.93151 19.0704C1.34515 19.3991 0.857428 19.8757 0.518104 20.4518C0.178781 21.0278 0 21.6826 0 22.3492C0 23.0159 0.178781 23.6707 0.518104 24.2467C0.857428 24.8227 1.34515 25.2994 1.93151 25.6281L11.4186 30.8291V48.6935C11.4186 51.6922 12.6229 54.568 14.7664 56.6884C16.91 58.8088 19.8174 60 22.8488 60H53.3295C56.3609 60 59.2683 58.8088 61.4119 56.6884C63.5554 54.568 64.7597 51.6922 64.7597 48.6935V30.8291L72.3798 26.608V37.3869C72.3798 38.3865 72.7813 39.3451 73.4958 40.0519C74.2103 40.7587 75.1794 41.1558 76.1899 41.1558C77.2004 41.1558 78.1695 40.7587 78.8841 40.0519C79.5986 39.3451 80 38.3865 80 37.3869V24.4221C79.9988 23.7543 79.8183 23.0988 79.4769 22.5226C79.1355 21.9465 78.6454 21.4704 78.0569 21.1432ZM57.1395 48.6935C57.1395 49.693 56.7381 50.6517 56.0236 51.3584C55.3091 52.0652 54.34 52.4623 53.3295 52.4623H22.8488C21.8383 52.4623 20.8692 52.0652 20.1547 51.3584C19.4402 50.6517 19.0388 49.693 19.0388 48.6935V35.0126L36.2222 44.4347L36.7937 44.6608H37.1366C37.4529 44.7002 37.7729 44.7002 38.0891 44.6608C38.4054 44.7002 38.7254 44.7002 39.0417 44.6608H39.3846C39.5868 44.6186 39.7802 44.5421 39.9561 44.4347L57.1395 35.0126V48.6935ZM38.0891 36.8593L11.6472 22.3116L38.0891 7.76382L64.5311 22.3116L38.0891 36.8593Z" fill="#3B0086"/>
</svg>
