<svg width="75" height="75" viewBox="0 0 75 75" fill="none" xmlns="http://www.w3.org/2000/svg">
<path d="M37.4379 33.75C36.6196 33.75 35.8197 33.9699 35.1393 34.382C34.459 34.794 33.9287 35.3797 33.6155 36.0649C33.3024 36.7502 33.2204 37.5042 33.3801 38.2316C33.5397 38.959 33.9338 39.6272 34.5124 40.1516C35.091 40.6761 35.8282 41.0333 36.6308 41.1779C37.4333 41.3226 38.2652 41.2484 39.0212 40.9645C39.7772 40.6807 40.4234 40.2001 40.878 39.5834C41.3326 38.9667 41.5753 38.2417 41.5753 37.5C41.5753 36.5054 41.1394 35.5516 40.3635 34.8484C39.5876 34.1451 38.5352 33.75 37.4379 33.75ZM68.9647 37.5L69.4198 36.975C75.0052 30 76.3292 23.5875 73.2675 18.75C70.2059 13.9125 63.3378 11.775 53.9874 12.6375H53.2427C49.4777 4.875 43.8922 0 37.4379 0C30.9836 0 25.3982 4.875 21.6746 12.75L20.8885 12.6375C11.538 11.775 4.67 13.9125 1.60835 18.75C-1.4533 23.5875 -0.129341 30 5.4561 36.975L5.91121 37.5L5.4561 38.025C-0.129341 45 -1.4533 51.4125 1.60835 56.25C4.33901 60.375 9.59347 62.55 16.7511 62.55C18.0337 62.55 19.3577 62.55 20.8885 62.3625H21.6332C25.3982 70.125 30.9836 75 37.4379 75C43.8922 75 49.4777 70.125 53.2013 62.25H53.946C55.3527 62.25 56.6767 62.4375 58.0834 62.4375C65.4065 62.4375 70.7851 60.2625 73.3916 56.1375C76.4533 51.3 75.1293 44.8875 69.5439 37.9125L68.9647 37.5ZM8.76599 22.5C9.80034 20.85 12.9034 19.95 17.0407 19.95H19.068C18.4197 22.2569 17.936 24.5992 17.62 26.9625C15.5121 28.4076 13.5083 29.9733 11.6208 31.65C8.47638 27.9 7.56616 24.375 8.76599 22.5ZM8.76599 52.5C7.56616 50.625 8.76599 47.1 11.538 43.2375C13.4256 44.9142 15.4294 46.4799 17.5372 47.925C17.8533 50.3006 18.337 52.6554 18.9853 54.975C13.855 55.275 9.96583 54.375 8.76599 52.5ZM37.4379 7.5C39.7549 7.5 42.5269 9.975 44.8852 14.3625C42.3575 15.0274 39.8714 15.8161 37.4379 16.725C35.0044 15.8161 32.5184 15.0274 29.9907 14.3625C32.349 9.975 35.121 7.5 37.4379 7.5ZM37.4379 67.5C35.121 67.5 32.349 65.025 29.9907 60.6375C32.5184 59.9726 35.0044 59.1839 37.4379 58.275C39.8714 59.1839 42.3575 59.9726 44.8852 60.6375C42.5269 65.025 39.7549 67.5 37.4379 67.5ZM49.5604 43.8375C47.6572 45.0375 45.7127 46.1625 43.644 47.25C41.5753 48.3375 39.5066 49.3125 37.4379 50.175C35.3693 49.3 33.3006 48.325 31.2319 47.25C29.1632 46.1625 27.0945 45.0375 25.3155 43.8375C25.0258 41.8125 25.0258 39.7125 25.0258 37.5C25.0258 35.2875 25.0258 33.1875 25.3155 31.1625C27.2186 29.9625 29.1632 28.8375 31.2319 27.75C33.3006 26.6625 35.3693 25.6875 37.4379 24.825C39.5066 25.7 41.5753 26.675 43.644 27.75C45.7127 28.8375 47.7814 29.9625 49.5604 31.1625C49.5604 33.1875 49.85 35.2875 49.85 37.5C49.85 39.7125 49.85 41.8125 49.5604 43.8375V43.8375ZM66.1099 52.5C64.91 54.375 61.0209 55.3125 55.8906 54.975C56.5389 52.6554 57.0226 50.3006 57.3387 47.925C59.4465 46.4799 61.4503 44.9142 63.3378 43.2375C66.3995 47.1 67.3097 50.625 66.1099 52.5ZM63.3378 31.7625C61.4503 30.0858 59.4465 28.5201 57.3387 27.075C57.0226 24.7117 56.5389 22.3694 55.8906 20.0625H57.9179C62.0553 20.0625 65.0755 20.9625 66.1926 22.6125C67.3097 24.2625 66.3995 27.9 63.3378 31.7625V31.7625Z" fill="#3B0086"/>
</svg>
