<svg width="80" height="78" viewBox="0 0 80 78" fill="none" xmlns="http://www.w3.org/2000/svg">
<path d="M68 16.4101H56V12.3076C56 9.04343 54.7357 5.91294 52.4853 3.60482C50.2348 1.29669 47.1826 0 44 0H36C32.8174 0 29.7652 1.29669 27.5147 3.60482C25.2643 5.91294 24 9.04343 24 12.3076V16.4101H12C8.8174 16.4101 5.76516 17.7068 3.51472 20.015C1.26428 22.3231 0 25.4536 0 28.7178V65.6406C0 68.9048 1.26428 72.0353 3.51472 74.3434C5.76516 76.6515 8.8174 77.9482 12 77.9482H68C71.1826 77.9482 74.2348 76.6515 76.4853 74.3434C78.7357 72.0353 80 68.9048 80 65.6406V28.7178C80 25.4536 78.7357 22.3231 76.4853 20.015C74.2348 17.7068 71.1826 16.4101 68 16.4101ZM32 12.3076C32 11.2195 32.4214 10.1761 33.1716 9.40668C33.9217 8.6373 34.9391 8.20507 36 8.20507H44C45.0609 8.20507 46.0783 8.6373 46.8284 9.40668C47.5786 10.1761 48 11.2195 48 12.3076V16.4101H32V12.3076ZM72 65.6406C72 66.7286 71.5786 67.7721 70.8284 68.5415C70.0783 69.3109 69.0609 69.7431 68 69.7431H12C10.9391 69.7431 9.92172 69.3109 9.17157 68.5415C8.42143 67.7721 8 66.7286 8 65.6406V43.0766C11.9018 44.6639 15.9127 45.9529 20 46.933V49.3535C20 50.4416 20.4214 51.4851 21.1716 52.2544C21.9217 53.0238 22.9391 53.456 24 53.456C25.0609 53.456 26.0783 53.0238 26.8284 52.2544C27.5786 51.4851 28 50.4416 28 49.3535V48.492C31.9774 49.0474 35.986 49.3351 40 49.3535C44.014 49.3351 48.0226 49.0474 52 48.492V49.3535C52 50.4416 52.4214 51.4851 53.1716 52.2544C53.9217 53.0238 54.9391 53.456 56 53.456C57.0609 53.456 58.0783 53.0238 58.8284 52.2544C59.5786 51.4851 60 50.4416 60 49.3535V46.933C64.0873 45.9529 68.0982 44.6639 72 43.0766V65.6406ZM72 34.0921C68.1096 35.7761 64.0975 37.1478 60 38.1946V36.9228C60 35.8348 59.5786 34.7913 58.8284 34.0219C58.0783 33.2525 57.0609 32.8203 56 32.8203C54.9391 32.8203 53.9217 33.2525 53.1716 34.0219C52.4214 34.7913 52 35.8348 52 36.9228V39.9587C44.045 41.1896 35.955 41.1896 28 39.9587V36.9228C28 35.8348 27.5786 34.7913 26.8284 34.0219C26.0783 33.2525 25.0609 32.8203 24 32.8203C22.9391 32.8203 21.9217 33.2525 21.1716 34.0219C20.4214 34.7913 20 35.8348 20 36.9228V38.2767C15.9025 37.2298 11.8904 35.8582 8 34.1741V28.7178C8 27.6297 8.42143 26.5862 9.17157 25.8168C9.92172 25.0474 10.9391 24.6152 12 24.6152H68C69.0609 24.6152 70.0783 25.0474 70.8284 25.8168C71.5786 26.5862 72 27.6297 72 28.7178V34.0921Z" fill="#3B0086"/>
</svg>
